<?xml version="1.0" encoding="utf-8"?>
<!-- Generator: Adobe Illustrator 23.0.6, SVG Export Plug-In . SVG Version: 6.00 Build 0)  -->
<svg version="1.1" id="Слой_1" xmlns="http://www.w3.org/2000/svg" xmlns:xlink="http://www.w3.org/1999/xlink" x="0px" y="0px"
	 viewBox="0 0 100 70" style="enable-background:new 0 0 100 100;" xml:space="preserve">
<style type="text/css">
	.st0{fill:#FFFFFF;}
	.st1{fill:none;}
</style>
<path class="st0" d="M96.5,40.8h-7.8l-1.3-0.4H67.5l-0.1-0.1h-1.6l-0.1,0.1h-4.4c0,0,0-0.4-0.1-0.6H60c0,0-0.1-1.4-2.4-2h-1.8
	c0,0-0.1-0.7-1-1h-5.1v2.3h-0.6c0,0-0.1-2.4-0.4-2.4h-4.1c0,0,0.3-1.8-1.3-2c-1.6-0.1-13.7,0-13.7,0l-1.1,0.4h-5.9l-1.1-0.4
	c0,0-8.3,0-10.3,0.4c-1.4,0.3-6,0.8-7.5,1.2C3,36.4,2.5,37,2.5,37.7v31.2c0,0,1.3,0.6,2.4,0.4c1.1-0.1,4.4-0.4,4.4-0.4h18.2
	c0,0,0.7,0,0.9-1.1C28.5,66.6,27,58.4,27,57c0-1.4,0.6-3.5,1.7-3.8c1.1-0.3,6.9,0,6.9,0s7.5-1.6,9-6.1v-2.3h4.1c0,0,0.4-0.8,0.4-2.3
	h0.6v2.1h5.1c0,0,0.8-0.3,0.8-0.8c0,0,1.7,0,1.8,0s2.1-0.6,2.5-2h1c0,0,0.3-0.3,0.3-0.6h4.4l0.1,0.1h1.6l0.1-0.1h19.9l1.3-0.1h8.8
	L96.5,40.8z M12.9,57.4C10.2,65.4,9.6,66,9.6,66H7.1c0,0,2-14.6,2-19.2s-0.3-7.2-0.3-7.2s2.3-1.1,4.1,0
	C12.9,39.6,15.6,49.3,12.9,57.4z"/>
<rect class="st1" width="100" height="50"/>
</svg>
