<?xml version="1.0" encoding="utf-8"?>
<!-- Generator: Adobe Illustrator 23.0.6, SVG Export Plug-In . SVG Version: 6.00 Build 0)  -->
<svg version="1.1" id="Слой_1" xmlns="http://www.w3.org/2000/svg" xmlns:xlink="http://www.w3.org/1999/xlink" x="0px" y="0px"
	 viewBox="0 0 100 100" style="enable-background:new 0 0 100 100;" xml:space="preserve">
<style type="text/css">
	.st0{fill:none;stroke:#FFFFFF;stroke-miterlimit:10;}
	.st1{fill:#FFFFFF;}
	.st2{fill:none;}
</style>
<rect x="24.2" y="37.5" class="st0" width="51.9" height="25.8"/>
<line class="st0" x1="34.8" y1="2" x2="34.8" y2="37.5"/>
<line class="st0" x1="42.6" y1="2" x2="42.6" y2="37.5"/>
<line class="st0" x1="50.1" y1="2" x2="50.1" y2="37.5"/>
<line class="st0" x1="57.5" y1="2" x2="57.5" y2="37.5"/>
<line class="st0" x1="65.1" y1="2" x2="65.1" y2="37.5"/>
<line class="st0" x1="35" y1="63.2" x2="35" y2="98.7"/>
<line class="st0" x1="42.7" y1="63.2" x2="42.7" y2="98.7"/>
<line class="st0" x1="50.3" y1="63.2" x2="50.3" y2="98.7"/>
<line class="st0" x1="57.7" y1="63.2" x2="57.7" y2="98.7"/>
<line class="st0" x1="65.3" y1="63.2" x2="65.3" y2="98.7"/>
<path class="st0" d="M15.4,14h63.1c4.1,0,7.5,3.3,7.5,7.5l0,0c0,4.1-3.3,7.5-7.5,7.5H23.8c-4.2,0-7.6,3.4-7.6,7.6l0,0
	c0,4.2,3.4,7.6,7.6,7.6h0.4"/>
<path class="st0" d="M76.1,44.1h1.1c3.9,0,7,3.1,7,7l0,0c0,3.9-3.1,7-7,7h-1.1"/>
<path class="st0" d="M24.2,58.2h-1.5c-4,0-7.3,3.3-7.3,7.3l0,0c0,4,3.3,7.3,7.3,7.3h55.2c3.5,0,6.3,2.8,6.3,6.3v4.5"/>
<path class="st1" d="M56.3,52.9c0,3.4-2.8,6.2-6.2,6.2s-6.2-2.8-6.2-6.2s6.2-10.6,6.2-10.6S56.3,49.5,56.3,52.9z"/>
<rect class="st2" width="100" height="100"/>
</svg>
