<?xml version="1.0" encoding="utf-8"?>
<!-- Generator: Adobe Illustrator 23.0.6, SVG Export Plug-In . SVG Version: 6.00 Build 0)  -->
<svg version="1.1" id="Слой_1" xmlns="http://www.w3.org/2000/svg" xmlns:xlink="http://www.w3.org/1999/xlink" x="0px" y="0px"
	 viewBox="0 0 100 100" style="enable-background:new 0 0 100 100;" xml:space="preserve">
<style type="text/css">
	.st0{fill:#FFFFFF;}
	.st1{fill:none;stroke:#FFFFFF;stroke-miterlimit:10;}
	.st2{fill:none;}
</style>
<g>
	<path class="st0" d="M79.2,29.2H24.3c-2.5,0-4.5-2-4.5-4.5V7.5c0-2.5,2-4.5,4.5-4.5h54.8c2.5,0,4.5,2,4.5,4.5v17.2
		C83.7,27.2,81.7,29.2,79.2,29.2z"/>
	<path class="st0" d="M54.3,62.2H53c-3,0-5.4,2.4-5.4,5.4v26.7c0,1.5,1.2,2.7,2.7,2.7H57c1.5,0,2.7-1.2,2.7-2.7V67.6
		C59.7,64.6,57.3,62.2,54.3,62.2z"/>
	<path class="st1" d="M19.8,16.1h-3.4c-2.4,0-4.4,2-4.4,4.4v12c0,2.3,1.9,4.2,4.2,4.2h31.5c3.3,0,5.9,2.7,5.9,5.9v19.6"/>
	<path class="st0" d="M87,18.3h-4.9V14H87c0.5,0,1,0.4,1,1v2.3C88,17.8,87.5,18.3,87,18.3z"/>
</g>
<rect class="st2" width="100" height="100"/>
</svg>
