<?xml version="1.0" encoding="utf-8"?>
<!-- Generator: Adobe Illustrator 23.0.6, SVG Export Plug-In . SVG Version: 6.00 Build 0)  -->
<svg version="1.1" id="Слой_1" xmlns="http://www.w3.org/2000/svg" xmlns:xlink="http://www.w3.org/1999/xlink" x="0px" y="0px"
	 viewBox="0 0 100 100" style="enable-background:new 0 0 100 100;" xml:space="preserve">
<style type="text/css">
	.st0{fill:#FFFFFF;}
	.st1{fill:none;}
</style>
<g id="AyLfpK_1_">
</g>
<g>
	<path class="st0" d="M48.5,35.8c0,0-11-30.4,12.6-31.1S91,20.1,89.7,24.5c-1.7,5.7-5.2,1.8-11,4.3c-4.4,2-9.7,7.9-11.4,12.2
		C67.3,41,62.4,31.6,48.5,35.8z"/>
	<path class="st0" d="M44.5,61.2c0,0-23.3,22.4-33.5,1.2s1.9-33.6,6.5-34.2c5.9-0.8,3.7,4,8.4,8.3c3.6,3.3,11.1,5.7,15.7,5.5
		C41.6,41.9,35.1,50.1,44.5,61.2z"/>
	<path class="st0" d="M70.3,51.8c0,0,31.7,6.2,20.2,26.8S61.9,96.4,58.8,92.9c-4-4.4,1.1-5.4,2-11.6c0.6-4.8-1.7-12.4-4.5-16
		C56.2,65.3,66.7,65.9,70.3,51.8z"/>
	<circle class="st0" cx="54.6" cy="49.8" r="8.6"/>
</g>
<rect class="st1" width="100" height="100"/>
</svg>
