<?xml version="1.0" encoding="utf-8"?>
<!-- Generator: Adobe Illustrator 23.0.6, SVG Export Plug-In . SVG Version: 6.00 Build 0)  -->
<svg version="1.1" id="Слой_1" xmlns="http://www.w3.org/2000/svg" xmlns:xlink="http://www.w3.org/1999/xlink" x="0px" y="0px"
	 viewBox="0 0 100 100" style="enable-background:new 0 0 100 100;" xml:space="preserve">
<style type="text/css">
	.st0{fill:#FFFFFF;}
	.st1{fill-rule:evenodd;clip-rule:evenodd;fill:#FFFFFF;}
	.st2{fill:none;}
</style>
<path class="st0" d="M16.7,29.1l-1-2.9L0.2,39.1l34,40.5v-2.3l-4.2-5.5l1.6-1.6l-0.6-1.6l-2.3,1.6l-7.4-8.7l5.2-4.5l-0.6-2.3
	l-5.8,4.9l-7.4-8.7l9.4-7.8L21.2,41l-10,8.1l-7.4-8.7L16.7,29.1z"/>
<path class="st0" d="M56.1,19.7l1.3-2.9H37.7v52.4l1.9-4.9v-3.6h1.3l0.6-1.9h-1.9V47.2h6.1l0.6-1.9h-6.8v-12H51l0.6-1.6h-12v-12
	H56.1z"/>
<path class="st1" d="M99.8,38.4L80.4,22.9L44.4,67.2c-4.4,5.4-3.5,13.3,2,17.5c5.3,4.1,12.9,3.3,17.2-1.9L99.8,38.4z M63,47.6
	l15.7,13.3l-7.4,8.8L55.6,56.3L63,47.6z M87.3,50.1L71.6,36.8l-7.4,8.8L80,58.8L87.3,50.1z M80,26.5l15.7,13.3l-7.4,8.8L72.7,35.2
	L80,26.5z M50,80.8c0.7,0,1.3-0.6,1.3-1.3c0-0.7-0.6-1.3-1.3-1.3c-0.7,0-1.3,0.6-1.3,1.3C48.7,80.3,49.3,80.8,50,80.8z"/>
<path class="st1" d="M78.7,22.9l-2.3,2.8L60.1,19l-4.3,10.6l13.1,5.4l-1.2,1.5l-12.4-5L50.9,42l9.1,3.7l-1.5,1.9l-8.2-3.3L46,54.9
	l4.9,2l-8.1,10c-4.3,5.3-3.5,13,1.7,17.3c-5.6-2.7-8.3-9.3-6-15.1l20.8-53.6L78.7,22.9z"/>
<path class="st0" d="M35.4,21v-3.6L17,24.5L35.4,74l0.6-1.9l-1.6-6.8l1.6-1v-1.9l-2.3,1l-3.9-10.7l5.5-2.3v-2.6L29,50.4l-3.9-11
	l10.4-3.9v-1.9l-11.3,3.9l-3.6-10.4L35.4,21z"/>
<rect class="st2" width="100" height="100"/>
</svg>
