<?xml version="1.0" encoding="utf-8"?>
<!-- Generator: Adobe Illustrator 23.0.6, SVG Export Plug-In . SVG Version: 6.00 Build 0)  -->
<svg version="1.1" id="Слой_1" xmlns="http://www.w3.org/2000/svg" xmlns:xlink="http://www.w3.org/1999/xlink" x="0px" y="0px"
	 viewBox="0 0 100 100" style="enable-background:new 0 0 100 100;" xml:space="preserve">
<style type="text/css">
	.st0{fill:#FFFFFF;}
	.st1{fill:none;}
</style>
<g>
	<polygon class="st0" points="32.4,36.3 42.6,42 52.4,36.3 42.4,30.6 	"/>
	<polygon class="st0" points="19.7,55.4 30.8,48.9 20.4,43.1 9.2,49.5 	"/>
	<polygon class="st0" points="56.2,49.8 65.8,44.2 53.2,37 43.4,42.7 	"/>
	<polygon class="st0" points="31.8,48.4 41.6,42.6 31.4,36.9 21.3,42.6 	"/>
	<polygon class="st0" points="66.5,43.7 73.8,39.5 61.2,32.3 53.8,36.6 	"/>
	<polygon class="st0" points="75,40.1 67.6,44.4 80.4,51.6 87.7,47.3 	"/>
	<polygon class="st0" points="44.4,56.7 31.6,49.6 20.6,56 33.3,63.2 	"/>
	<polygon class="st0" points="32.7,49 45.5,56.1 55.3,50.4 42.5,43.3 	"/>
	<polygon class="st0" points="53,35.9 60.3,31.6 50.4,26 43,30.2 	"/>
	<polygon class="st0" points="18.9,56 8.3,50 0,54.7 10.6,60.8 	"/>
	<polygon class="st0" points="88.4,47.9 81.1,52.2 92.7,58.7 100,54.5 	"/>
	<polygon class="st0" points="70,54.7 72.6,56.2 79.8,52.1 67,44.8 57.3,50.5 67.5,56.2 	"/>
	<polygon class="st0" points="46.4,71.5 33.6,64.3 25.2,69.2 38,76.5 	"/>
	<polygon class="st0" points="45.6,57.3 34.4,63.8 47.3,71 58.5,64.4 	"/>
	<polygon class="st0" points="24.1,68.6 32.4,63.7 19.7,56.5 11.5,61.3 	"/>
	<polygon class="st0" points="80.5,52.6 73.5,56.7 84.1,62.7 81.5,64.2 82.5,64.8 92.1,59.2 	"/>
	<polygon class="st0" points="57.9,61.9 66.6,56.7 56.4,51 46.6,56.7 59.6,63.9 60.6,63.3 	"/>
	<polygon class="st0" points="70.1,56.1 60.3,61.8 72.1,68.3 81.7,62.6 	"/>
</g>
<rect class="st1" width="100" height="100"/>
</svg>
