<?xml version="1.0" encoding="utf-8"?>
<!-- Generator: Adobe Illustrator 23.0.6, SVG Export Plug-In . SVG Version: 6.00 Build 0)  -->
<svg version="1.1" id="Слой_1" xmlns="http://www.w3.org/2000/svg" xmlns:xlink="http://www.w3.org/1999/xlink" x="0px" y="0px"
	 viewBox="0 0 100 100" style="enable-background:new 0 0 100 100;" xml:space="preserve">
<style type="text/css">
	.st0{fill:#FFFFFF;}
	.st1{fill:none;}
</style>
<rect x="2.1" y="81.7" class="st0" width="95.8" height="15.8"/>
<path class="st0" d="M72.3,36.6c0-19.4-15.7-35.1-35.1-35.1S2.1,17.2,2.1,36.6s15.7,35.1,35.1,35.1h60.7V61l-60.4,0.3
	C24,61.4,13.1,50.5,13.1,37S24,12.7,37.5,12.7S61.8,23.6,61.8,37L72.3,36.6z"/>
<path class="st0" d="M37.4,24.1c-7,0-12.7,5.7-12.7,12.7s5.7,12.7,12.7,12.7s12.7-5.7,12.7-12.7S44.4,24.1,37.4,24.1z M37.4,38.9
	c-1.1,0-1.9-0.9-1.9-1.9c0-1.1,0.9-1.9,1.9-1.9s1.9,0.9,1.9,1.9C39.3,38,38.5,38.9,37.4,38.9z"/>
<rect class="st1" width="100" height="100"/>
</svg>
