<?xml version="1.0" encoding="utf-8"?>
<!-- Generator: Adobe Illustrator 23.0.6, SVG Export Plug-In . SVG Version: 6.00 Build 0)  -->
<svg version="1.1" id="Слой_1" xmlns="http://www.w3.org/2000/svg" xmlns:xlink="http://www.w3.org/1999/xlink" x="0px" y="0px"
	 viewBox="0 0 100 100" style="enable-background:new 0 0 100 100;" xml:space="preserve">
<style type="text/css">
	.st0{fill:#FFFFFF;}
	.st1{fill:none;}
</style>
<path class="st0" d="M33.4,50.8c-0.1-2.3,2.6-3.4,4.1-1.9l12.9,12.8c1.2,1.2,1.2,3.1,0,4.2c-0.9,0.9-1.9,0.7-4,0.6l0,0
	c0,0-3.5-0.4-4.6,1.1C41,68.9,38,77.8,35.5,80.7C33,83.6,22.5,93.6,10.7,95L5,89.3c0,0-0.3-9.2,10.9-21.8c1.6-1.8,3.6-3.3,5.7-4.4
	c2-1,4.6-2.2,7.1-2.9c3.9-1.1,4.4-3.3,4.4-4.4c0.1-2.7,0.2-4.5,0.2-5.6L33.4,50.8z"/>
<path class="st0" d="M46.3,48.6l4.7,4.7l33.2-33l4.3-1.6c1-0.4,1.9-1.2,2.4-2.2l4-7.9L90.5,5l-7.6,4.2c-1,0.5-1.7,1.4-2.1,2.4
	l-1.4,3.8L46.3,48.6z"/>
<rect class="st1" width="100" height="100"/>
</svg>
