<?xml version="1.0" encoding="utf-8"?>
<!-- Generator: Adobe Illustrator 23.0.6, SVG Export Plug-In . SVG Version: 6.00 Build 0)  -->
<svg version="1.1" id="Слой_1" xmlns="http://www.w3.org/2000/svg" xmlns:xlink="http://www.w3.org/1999/xlink" x="0px" y="0px"
	 viewBox="0 0 100 100" style="enable-background:new 0 0 100 100;" xml:space="preserve">
<style type="text/css">
	.st0{fill:none;stroke:#FFFFFF;stroke-width:2;}
	.st1{fill:none;stroke:#FFFFFF;stroke-width:2;stroke-linecap:round;stroke-linejoin:round;}
	.st2{fill:none;}
	.st3{fill:#FFFFFF;}
</style>
<rect x="3.4" y="3.4" class="st0" width="93.2" height="93.2"/>
<path class="st0" d="M15.5,3.2v93.5"/>
<path class="st1" d="M50,3.4v45.7"/>
<path class="st1" d="M62.5,3.4v34.2"/>
<path class="st0" d="M84.4,3.6v26"/>
<rect class="st2" width="100" height="100"/>
<path class="st3" d="M96.6,28.1C60.4,28.1,31,57.5,31,93.7v2.9h65.7L96.6,28.1L96.6,28.1z M53.1,85.7c-1.7,0-3.1-1.4-3.1-3.1
	c0-1.7,1.4-3.1,3.1-3.1c1.7,0,3.1,1.4,3.1,3.1C56.3,84.3,54.9,85.7,53.1,85.7z M68.8,85.7c-1.7,0-3.1-1.4-3.1-3.1
	c0-1.7,1.4-3.1,3.1-3.1c1.7,0,3.1,1.4,3.1,3.1C71.9,84.3,70.5,85.7,68.8,85.7z M84.4,85.7c-1.7,0-3.1-1.4-3.1-3.1
	c0-1.7,1.4-3.1,3.1-3.1c1.7,0,3.1,1.4,3.1,3.1C87.5,84.3,86.1,85.7,84.4,85.7z M84.4,70.1c-1.7,0-3.1-1.4-3.1-3.1
	c0-1.7,1.4-3.1,3.1-3.1c1.7,0,3.1,1.4,3.1,3.1C87.5,68.7,86.1,70.1,84.4,70.1z M84.4,54.4c-1.7,0-3.1-1.4-3.1-3.1s1.4-3.1,3.1-3.1
	c1.7,0,3.1,1.4,3.1,3.1S86.1,54.4,84.4,54.4z"/>
</svg>
