<?xml version="1.0" encoding="utf-8"?>
<!-- Generator: Adobe Illustrator 23.0.6, SVG Export Plug-In . SVG Version: 6.00 Build 0)  -->
<svg version="1.1" id="_x31_" xmlns="http://www.w3.org/2000/svg" xmlns:xlink="http://www.w3.org/1999/xlink" x="0px" y="0px"
	 viewBox="0 0 767.4 134.26" style="enable-background:new 0 0 767.4 134.26;" xml:space="preserve">
<style type="text/css">
	.st0{fill-rule:evenodd;clip-rule:evenodd; fill:#FFFFFF;}
	.st1{fill-rule:evenodd;clip-rule:evenodd;fill:#6DB744;}
	.st2{fill-rule:evenodd;clip-rule:evenodd;fill:#6DB742;}
	.st3{fill-rule:evenodd;clip-rule:evenodd;fill:#FFFFFF;}
</style>
<path class="st0" d="M204.3,110.05L204,38.39h14.65l-0.69,39.33l8.47-39.33h11.33l0.69,38.98L246,38.39h14.53l-15.43,71.66h-15.39
	l-0.87-40.9l-9.03,40.9H204.3L204.3,110.05z M276.96,111c5.47,0,9.93-1.3,13.34-3.92c3.42-2.63,5.39-6.45,5.9-11.46l0.65-5.83
	h-14.36l-0.6,6c-0.31,2.77-1.58,4.15-3.81,4.15c-1.67,0-2.51-1.17-2.51-3.5c0-0.37,0.03-0.8,0.09-1.25l1-9.63h20.57l1.3-11.76
	c0.09-0.81,0.13-1.58,0.13-2.33c0-4.04-1.18-7.2-3.54-9.47c-2.83-2.7-7.02-4.06-12.59-4.06c-5.53,0-10.14,1.45-13.81,4.37
	c-3.67,2.91-5.77,6.92-6.29,12.05l-2.12,20.23c-0.09,0.78-0.12,1.53-0.12,2.24c0,4.07,1.28,7.35,3.88,9.83
	C267.13,109.55,271.43,111,276.96,111L276.96,111z M277.43,78.4l0.53-4.71c0.34-3.14,1.46-4.71,3.36-4.71
	c1.99,0,2.98,1.11,2.98,3.32c0,0.3-0.01,0.59-0.04,0.91l-0.56,5.18H277.43L277.43,78.4z M323.57,110.05l7.52-71.66h19.28
	c2.73,0,5.12,0.1,7.17,0.34c2.05,0.24,4.13,0.72,6.27,1.49c2.12,0.77,3.82,1.83,5.09,3.17c1.24,1.33,2.18,3.17,2.82,5.53
	c0.37,1.45,0.58,3.04,0.6,4.81c0,1.15-0.09,2.36-0.27,3.63C371,65.48,367,70.23,360.1,71.59c4,0.37,6.95,2.02,8.85,4.96
	c1.5,2.35,2.26,5.36,2.26,9.04c0,0.94-0.04,1.95-0.13,2.98c-1.3,14.33-9.53,21.48-24.68,21.48H323.57L323.57,110.05z M342.11,98.03
	h2.55c3.2,0,5.53-0.8,7.02-2.39c1.48-1.59,2.4-4.04,2.79-7.33c0.12-1.03,0.18-1.99,0.18-2.89c-0.03-2.42-0.46-4.18-1.25-5.27
	c-1.11-1.53-3.29-2.3-6.58-2.3h-2.6L342.11,98.03L342.11,98.03z M345.4,66.78h2.46c3.19,0,5.43-0.74,6.7-2.21
	c1.27-1.49,2.07-3.75,2.42-6.77c0.03-0.37,0.04-0.74,0.04-1.08c0-1.87-0.52-3.45-1.56-4.72c-1.21-1.49-3.02-2.24-5.44-2.24h-2.85
	L345.4,66.78L345.4,66.78z M385.64,111c-3.08,0-5.39-1.12-6.92-3.36c-1.21-1.79-1.82-4.04-1.82-6.74c0-0.72,0.04-1.48,0.13-2.24
	l4.15-39.78h15.61l-4.01,38.48c-0.03,0.25-0.04,0.5-0.04,0.72c0,1.71,0.72,2.55,2.2,2.55c0.06,0,0.13,0,0.22,0
	c1.12-0.06,2.36-0.46,3.72-1.21l4.23-40.54h15.6l-5.36,51.18h-15.61l0.49-4.63C393.87,109.14,389.68,111,385.64,111L385.64,111z
	 M422.2,110.05l5.37-51.18h15.6l-5.36,51.18H422.2L422.2,110.05z M428.42,50.02l1.08-10.17h15.7l-1.08,10.17H428.42L428.42,50.02z
	 M447.06,110.05l7.51-71.66h15.65l-7.52,71.66H447.06L447.06,110.05z M482.59,111c-3.66,0-6.39-1.27-8.17-3.79
	c-1.39-1.96-2.08-4.56-2.08-7.79c0-0.94,0.06-1.96,0.18-3.02l2.51-23.77c0.46-4.5,1.87-8.07,4.23-10.73
	c2.36-2.64,5.36-3.97,8.99-3.97c3.64,0,6.96,1.37,9.99,4.1l2.46-23.64h15.61l-7.52,71.66h-15.61l0.44-4.1
	C489.77,109.31,486.1,111,482.59,111L482.59,111z M490.75,101.36c0.93,0,2.08-0.38,3.47-1.17l3.36-31.99
	c-1.06-0.58-2.08-0.87-3.07-0.87c-1.06,0-1.92,0.4-2.55,1.18c-0.62,0.77-1.03,1.83-1.21,3.14l-2.67,25.69
	c-0.03,0.22-0.04,0.44-0.04,0.65c0,0.83,0.19,1.56,0.56,2.2C489.05,100.95,489.77,101.33,490.75,101.36L490.75,101.36z
	 M564.28,110.05l-0.3-71.66h14.65l-0.69,39.33l8.47-39.33h11.33l0.69,38.98l7.55-38.98h14.53l-15.43,71.66H589.7l-0.87-40.9
	l-9.03,40.9H564.28L564.28,110.05z M638.2,100.71c1.12,0,1.99-0.38,2.61-1.17c0.62-0.78,1.02-2.02,1.2-3.72l2.38-22.74
	c0.06-0.52,0.09-0.99,0.09-1.43c0-0.97-0.16-1.74-0.47-2.29c-0.46-0.78-1.25-1.17-2.38-1.17c-2.14,0-3.38,1.62-3.72,4.88
	l-2.38,22.74c-0.06,0.46-0.09,0.89-0.09,1.25C635.44,99.5,636.35,100.71,638.2,100.71L638.2,100.71z M637.08,111
	c5.65,0,10.33-1.37,14.03-4.15c3.7-2.76,5.84-6.82,6.42-12.14l2.15-20.49c0.09-0.77,0.13-1.52,0.13-2.24c0-1.81-0.27-3.47-0.78-4.97
	c-0.71-2.08-1.84-3.76-3.39-5.08c-1.53-1.31-3.41-2.3-5.59-2.98c-2.18-0.68-4.65-1.02-7.39-1.02c-5.62,0-10.25,1.37-13.91,4.15
	c-3.66,2.76-5.77,6.82-6.31,12.14l-2.17,20.49c-0.07,0.78-0.12,1.53-0.12,2.29c0,1.82,0.24,3.47,0.72,4.93
	c0.69,2.08,1.8,3.78,3.33,5.08c1.53,1.31,3.38,2.32,5.53,3C631.88,110.66,634.33,111,637.08,111L637.08,111z M663.91,110.05
	l5.36-51.18h15.61l-0.91,8.82c3.72-6.29,7.36-9.43,10.95-9.43c0.69,0,1.39,0.13,2.11,0.4l-1.39,13.18
	c-0.28-0.06-0.77-0.09-1.46-0.09c-4.26,0.3-8.04,2.49-11.33,6.62l-3.32,31.68H663.91L663.91,110.05z M698.16,110.05l7.51-71.66
	h15.65l-7.52,71.66H698.16L698.16,110.05z M733.69,111c-3.66,0-6.39-1.27-8.17-3.79c-1.39-1.96-2.08-4.56-2.08-7.79
	c0-0.94,0.06-1.96,0.18-3.02l2.51-23.77c0.46-4.5,1.87-8.07,4.23-10.73c2.36-2.64,5.36-3.97,8.98-3.97c3.64,0,6.96,1.37,9.99,4.1
	l2.46-23.64h15.61l-7.52,71.66h-15.61l0.44-4.1C740.87,109.31,737.2,111,733.69,111L733.69,111z M741.85,101.36
	c0.93,0,2.08-0.38,3.47-1.17l3.36-31.99c-1.06-0.58-2.08-0.87-3.07-0.87c-1.06,0-1.92,0.4-2.55,1.18c-0.62,0.77-1.03,1.83-1.21,3.14
	l-2.67,25.69c-0.03,0.22-0.04,0.44-0.04,0.65c0,0.83,0.19,1.56,0.56,2.2C740.15,100.95,740.87,101.33,741.85,101.36z"/>
<g>
	<g>
		<path class="st1" d="M48.83,25.59c5.1,1.76,7.13,3.16,9.53,4.85c4.15,2.92,7.16,6.08,12.27,10.98
			c2.76,2.68,15.45,16.99,17.05,20.05l-33.01-0.56c-7.48-0.1-11.9-0.34-13.24-0.35c-0.24,0-0.15,0.14-0.16,0.54
			c-0.02,0.51,0.06,1.27,0.07,3.21L85,65.17L51.95,82.92c4.45,8.93-0.34,20.5,2.24,28c2.11,6.14,64.75,24.33,66.18,23.3
			c1.96-1.42,1.98-3.03,2.05-6.13c0.08-3.34-0.18-5.5,0.25-8.97c26.9,0,23.11,0.84,23.11-34.13c24.31,0,2.63-7.93,0.08-34.38
			C139.68-13.76,64.05-10.45,48.83,25.59z"/>
		<path class="st1" d="M41.33,59.38c0.85-16.51,0.47-12.26,1.23-17.4c0.35-2.42,2.14-8.75,6.1-16.19L18.32,17.4L41.33,59.38z"/>
		<path class="st1" d="M17.63,102.57l33.46-19.04L42.51,66.5c-0.08-0.13-0.25-0.42-0.41-0.61L17.63,102.57z"/>
	</g>
	<path class="st2" d="M0,33.7c0.02-0.01,0.13,0.01,3.65,0.03c3.52,0.03,10.45,0.06,14.1,0.08c3.64,0.02,4,0.01,4.19,0.02
		c0.18,0,0.19,0.02,0.2,0.03c0.01,0.01,0.02,0.03,2.4,4.52c2.38,4.49,7.13,13.45,9.61,18.11c2.49,4.66,2.71,5.01,2.83,5.2
		c0.12,0.19,0.14,0.22-5.46-3.92C25.91,53.62,14.7,45.3,8.8,40.88c-5.9-4.42-6.48-4.93-7.04-5.47c-0.56-0.53-1.1-1.08-1.4-1.38
		C0.05,33.75-0.02,33.71,0,33.7z"/>
	<path class="st3" d="M106.24,34.53c0,0,0,0-1.1,2.22c-1.1,2.21-3.29,6.63-4.46,8.97c-1.16,2.34-1.29,2.59-1.37,2.74
		c-0.08,0.15-0.12,0.19-0.13,0.22c-0.02,0.02-0.01,0.03,3.68-0.03c3.7-0.06,11.08-0.19,14.88-0.25c3.79-0.06,3.99-0.06,4.09-0.06
		c0.1,0,0.11,0,0.11,0c0,0,0-0.01-1.97-1.65c-1.97-1.65-5.9-4.94-8.23-6.97c-2.32-2.04-3.04-2.82-3.66-3.44
		c-0.62-0.62-1.14-1.08-1.43-1.35c-0.29-0.26-0.35-0.33-0.37-0.36C106.24,34.54,106.24,34.53,106.24,34.53z"/>
	<polygon class="st3" points="102.58,34.49 96.52,46.88 90.45,59.27 83.19,50.46 75.93,41.64 89.25,38.06 	"/>
</g>
<path class="st2" d="M535.72,89.78v4.45h-1.16V83.99h1.16v4.46h11.52v1.34H535.72L535.72,89.78z M534.56,71.25h12.68v1.32h-5.85
	v7.93h5.85v1.34h-12.68v-1.34h5.65v-7.93h-5.65V71.25L534.56,71.25z M546.08,58.16h1.16v8.96h-12.68v-8.69h1.16v7.35h4.51v-6.56
	h1.14v6.56h4.71V58.16z"/>
</svg>
