<?xml version="1.0" encoding="utf-8"?>
<!-- Generator: Adobe Illustrator 23.0.6, SVG Export Plug-In . SVG Version: 6.00 Build 0)  -->
<svg version="1.1" id="Слой_1" xmlns="http://www.w3.org/2000/svg" xmlns:xlink="http://www.w3.org/1999/xlink" x="0px" y="0px"
	 viewBox="0 0 15 14.9" style="enable-background:new 0 0 15 14.9;" xml:space="preserve">
<style type="text/css">
	.st0{fill:#FFFFFF;}
	.st1{fill:none;stroke:#FFFFFF;stroke-width:0.75;stroke-linecap:round;stroke-miterlimit:10;}
	.st2{fill:none;stroke:#FFFFFF;stroke-width:0.75;stroke-miterlimit:10;}
</style>
<g>
	<path class="st0" d="M4.7,3.5c0,0-1.3,0.2-1.3,1.3c0,1.1,0.9,2.6,1.7,3.5c0.4,0.5,2.5,2.6,4.2,3.2c0.5,0.1,1,0.1,1.4-0.1
		c0.3-0.2,0.6-0.5,0.7-0.9c0.1-0.3,0-0.6-0.2-0.8c-0.5-0.4-1.3-1.2-1.7-1.2c-0.6,0-0.7,0.9-1.3,0.9c-0.4,0-2.1-0.6-2.5-2.3
		c-0.1-0.2,0-0.5,0.2-0.6c0.3-0.2,0.7-0.6,0.6-0.9C6.3,5.2,5.6,3.5,4.7,3.5z"/>
	<path class="st1" d="M7.6,3.3C7.9,3.2,9,3.1,10,3.7c1.1,0.7,1.7,2,1.6,3.4"/>
	<path class="st1" d="M7.8,4.3c0.2,0,0.9-0.1,1.6,0.3c0.7,0.5,1.2,1.4,1.1,2.3"/>
	<path class="st1" d="M8.2,5.2c0.1,0,0.4-0.1,0.7,0.1c0.3,0.2,0.5,0.6,0.5,1"/>
</g>
<path class="st2" d="M7.5,14.4L7.5,14.4c-3.9,0-7-3.1-7-7v0c0-3.9,3.1-7,7-7h0c3.9,0,7,3.1,7,7v0C14.5,11.3,11.4,14.4,7.5,14.4z"/>
</svg>
